# xmcd
#
# Track frame offsets:
# 150
# 22146
# 44929
# 80762
# 111303
# 143939
# 177694
# 209183
# 237086
# 254113
#
# Disc length: 3809 seconds
#
# Revision: 1
# Processed by: cddbd v1.5.1PL0 Copyright (c) Steve Scherf et al.
# Submitted via: CedeCatalogueitor 2.6.0.6 http://personales.ya.com/cdcatalogueitor
#
DISCID=ab0edf0a
DTITLE=Eliseo Parra - Tribus Hispanas
DYEAR=1900
DGENRE=
TTITLE0=La Llave De La Alegría
TTITLE1=Van Por El Aire
TTITLE2=Suite Del Rebollar
TTITLE3=El Silenci D'estimar
TTITLE4=Por El Azul De Este Mar
TTITLE5=Noche Tranquila Y Serena
TTITLE6=El Son Del Repique
TTITLE7=Número 9
TTITLE8=De Trilla
TTITLE9=Bella Y Pagana
EXTD=
EXTT0=
EXTT1=
EXTT2=
EXTT3=
EXTT4=
EXTT5=
EXTT6=
EXTT7=
EXTT8=
EXTT9=
PLAYORDER=
